<svg width="61" height="61" viewBox="0 0 61 61" fill="none" xmlns="http://www.w3.org/2000/svg">
<circle cx="7.62499" cy="7.62505" r="4.575" fill="#D61975"/>
<circle cx="53.375" cy="53.375" r="4.575" fill="#D61975"/>
<circle cx="10.675" cy="50.3249" r="3.05" fill="#F58289"/>
<circle cx="57.1875" cy="29.7376" r="0.7625" fill="#D55159"/>
<circle cx="40.4125" cy="52.6126" r="0.7625" fill="#F58289"/>
<circle cx="3.81249" cy="29.7376" r="0.7625" fill="#D55159"/>
<circle cx="22.1125" cy="8.3875" r="0.7625" fill="#F58289"/>
<circle cx="31.2625" cy="2.2875" r="2.2875" fill="#004A89"/>
<circle cx="31.2625" cy="58.7125" r="2.2875" fill="#0066BE"/>
<circle cx="50.325" cy="10.675" r="3.05" fill="#F58289"/>
<g clip-path="url(#clip0_1345_594)">
<path d="M30.5 11C19.736 11 11 19.736 11 30.5C11 41.264 19.736 50 30.5 50C41.264 50 50 41.264 50 30.5C50 19.736 41.264 11 30.5 11ZM30.5 42.2C29.07 42.2 27.9 41.03 27.9 39.6C27.9 38.17 29.07 37 30.5 37C31.93 37 33.1 38.17 33.1 39.6C33.1 41.03 31.93 42.2 30.5 42.2ZM33.477 22.037L32.606 32.463C32.515 33.555 31.605 34.4 30.5 34.4C29.395 34.4 28.485 33.555 28.394 32.463L27.523 22.037C27.38 20.295 28.745 18.8 30.5 18.8C32.164 18.8 33.49 20.152 33.49 21.79C33.49 21.868 33.49 21.959 33.477 22.037Z" fill="#F58289"/>
</g>
<defs>
<clipPath id="clip0_1345_594">
<rect width="39" height="39" fill="white" transform="translate(11 11)"/>
</clipPath>
</defs>
</svg>
