<svg width="74" height="74" viewBox="0 0 74 74" fill="none" xmlns="http://www.w3.org/2000/svg">
<path fill-rule="evenodd" clip-rule="evenodd" d="M37.0002 12.95C50.2826 12.95 61.0502 23.7175 61.0502 37C61.0502 50.2824 50.2826 61.0499 37.0002 61.0499C23.7178 61.0499 12.9502 50.2824 12.9502 37C12.9502 23.7175 23.7178 12.95 37.0002 12.95ZM25.7428 38.4278L32.5922 44.718C33.5914 45.6375 35.1379 45.5886 36.0774 44.6194L48.2966 32.9202C49.2904 31.9641 49.3211 30.3833 48.365 29.3895C47.4089 28.3957 45.8282 28.365 44.8344 29.321L34.2499 39.4551L29.1268 34.7503C28.1113 33.8158 26.5305 33.8815 25.5961 34.897C24.6616 35.9126 24.7273 37.4934 25.7428 38.4278Z" fill="#39CABC"/>
<circle cx="9.2502" cy="9.24995" r="5.55" fill="#0066BE"/>
<circle cx="64.7502" cy="64.75" r="5.55" fill="#0066BE"/>
<circle cx="10.95" cy="63.0496" r="3.7" fill="#FFBE2C"/>
<circle cx="69.3752" cy="36.075" r="0.925" fill="#97B6CF"/>
<circle cx="49.0251" cy="63.825" r="0.925" fill="#004A89"/>
<circle cx="4.6252" cy="36.075" r="0.925" fill="#97B6CF"/>
<circle cx="26.8249" cy="10.175" r="0.925" fill="#004A89"/>
<circle cx="37.9249" cy="2.775" r="2.775" fill="#8A4E9C"/>
<circle cx="37.9249" cy="71.225" r="2.775" fill="#D61975"/>
<circle cx="63.0496" cy="10.95" r="3.7" fill="#FFBE2C"/>
</svg>
